/* XPM */
static char * bottom_right_inactive_xpm[] = {
"22 22 3 1",
" 	c None",
".	c #686868",
"+	c #E3E4E4",
"                .++++.",
"                .++++.",
"                .++++.",
"                .++++.",
"                .++++.",
"                .++++.",
"                .++++.",
"                .++++.",
"                .++++.",
"                .++++.",
"                .++++.",
"                .++++.",
"                .++++.",
"                .++++.",
"                .++++.",
"                .++++.",
".................++++.",
"+++++++++++++++++++++.",
"+++++++++++++++++++++.",
"+++++++++++++++++++++.",
"+++++++++++++++++++++.",
"......................"};
