/* XPM */
static char * hide_pressed_xpm[] = {
"13 14 12 1",
" 	c None",
".	c #9A9A9A",
"+	c #D5D6D5",
"@	c #2D2D2D",
"#	c #FFFFFF",
"$	c #565656",
"%	c #686868",
"&	c #797979",
"*	c #8A8A8A",
"=	c #A9A9A9",
"-	c #B8B9B8",
";	c #C7C7C7",
"............+",
".@@@@@@@@@@@#",
".@$$%%&&**.@#",
".@$%%&&**..@#",
".@%%&&**..=@#",
".@%&&**..==@#",
".@&&**..===@#",
".@&**..==-=@#",
".@@@@@@@@@@@#",
".@*..==--;=@#",
".@..=======@#",
".@@@@@@@@@@@#",
"+############",
"+++++++++++++"};
