/* XPM */
static char * menu_active_xpm[] = {
"13 14 10 1",
" 	c None",
".	c #9A9A9A",
"+	c #D5D6D5",
"@	c #2D2D2D",
"#	c #FFFFFF",
"$	c #A9A9A9",
"%	c #B8B9B8",
"&	c #C7C7C7",
"*	c #E3E4E4",
"=	c #F1F2F1",
"............+",
".@@@@@@@@@@@#",
".@#++++++++@#",
".@+$$%%&&+.@#",
".@+$@@@@@+.@#",
".@+%%&&++*.@#",
".@+%@@@@@*.@#",
".@+&&@@@*=.@#",
".@+&++@*==.@#",
".@+++**==#.@#",
".@+........@#",
".@@@@@@@@@@@#",
"+############",
"+++++++++++++"};
