/* XPM */
static char * title_5_inactive_xpm[] = {
"4 22 3 1",
" 	c None",
".	c #686868",
"+	c #E3E4E4",
"....",
"++++",
"++++",
"++++",
"++++",
"++++",
"++++",
"++++",
"++++",
"++++",
"++++",
"++++",
"++++",
"++++",
"++++",
"++++",
"++++",
"++++",
"++++",
"++++",
"++++",
"...."};
