/* XPM */
static char * top_right_active_xpm[] = {
"38 22 6 1",
" 	c None",
".	c #000000",
"+	c #FFFFFF",
"@	c #D5D6D5",
"#	c #A9A9A9",
"$	c #8A8A8A",
"......................................",
"++++++++++++++++++++++++++++++++++++@.",
"@@@@@@@@@@@@@@@@@@@@@@@@@@@@@@@@@@@@#.",
"@@@@@@@@@@@@@@@@@@@@@@@@@@@@@@@@@@@@#.",
"@@@@@@@@@@@@@@@@@@@@@@@@@@@@@@@@@@@@#.",
"$@@@@@@@@@@@@@@@@@@@@@@@@@@@@@@@@@@@#.",
"@@@@@@@@@@@@@@@@@@@@@@@@@@@@@@@@@@@@#.",
"$@@@@@@@@@@@@@@@@@@@@@@@@@@@@@@@@@@@#.",
"@@@@@@@@@@@@@@@@@@@@@@@@@@@@@@@@@@@@#.",
"$@@@@@@@@@@@@@@@@@@@@@@@@@@@@@@@@@@@#.",
"@@@@@@@@@@@@@@@@@@@@@@@@@@@@@@@@@@@@#.",
"$@@@@@@@@@@@@@@@@@@@@@@@@@@@@@@@@@@@#.",
"@@@@@@@@@@@@@@@@@@@@@@@@@@@@@@@@@@@@#.",
"$@@@@@@@@@@@@@@@@@@@@@@@@@@@@@@@@@@@#.",
"@@@@@@@@@@@@@@@@@@@@@@@@@@@@@@@@@@@@#.",
"$@@@@@@@@@@@@@@@@@@@@@@@@@@@@@@@@@@@#.",
"@@@@@@@@@@@@@@@@@@@@@@@@@@@@@@@@@@@@#.",
"@@@@@@@@@@@@@@@@@@@@@@@@@@@@@@@@@@@@#.",
"@@@@@@@@@@@@@@@@@@@@@@@@@@@@@@@@@@@@#.",
"@@@@@@@@@@@@@@@@@@@@@@@@@@@@@@@@@@@@#.",
"#################################@@@#.",
".................................+@@#."};
