/* XPM */
static char * close_active_xpm[] = {
"17 18 74 1",
" 	c None",
".	c #9A9A9A",
"+	c #D5D6D5",
"@	c #2D2D2D",
"#	c #FFFFFF",
"$	c #A9A9A9",
"%	c #AEADAD",
"&	c #B2B1B2",
"*	c #B6B6B5",
"=	c #BABABA",
"-	c #BFBEBE",
";	c #C3C2C2",
">	c #C7C8C8",
",	c #CCCBCB",
"'	c #CFD0D0",
")	c #D4D4D4",
"!	c #ADADAE",
"~	c #B2B1B1",
"{	c #B6B5B6",
"]	c #BABBBB",
"^	c #BEBFBE",
"/	c #C3C2C3",
"(	c #C7C7C7",
"_	c #D0D0CF",
":	c #D9D9D9",
"<	c #B6B6B6",
"[	c #BABBBA",
"}	c #C3C3C3",
"|	c #C8C7C7",
"1	c #CBCCCB",
"2	c #D0D0D0",
"3	c #D9D8D9",
"4	c #DDDDDD",
"5	c #BEBFBF",
"6	c #C2C3C3",
"7	c #CCCCCB",
"8	c #CFD0CF",
"9	c #D8D9D8",
"0	c #DCDCDC",
"a	c #E1E1E0",
"b	c #CBCBCC",
"c	c #D8D8D8",
"d	c #DDDCDD",
"e	c #E0E0E1",
"f	c #E5E5E6",
"g	c #BFBFBF",
"h	c #C3C3C2",
"i	c #CFCFD0",
"j	c #E5E6E5",
"k	c #E9EAEA",
"l	c #E1E1E1",
"m	c #E5E5E5",
"n	c #EEEEEE",
"o	c #D0CFD0",
"p	c #D9D9D8",
"q	c #DCDDDC",
"r	c #E9EAE9",
"s	c #EDEDEE",
"t	c #F3F2F2",
"u	c #CBCBCB",
"v	c #E9E9E9",
"w	c #F2F3F3",
"x	c #F6F7F6",
"y	c #DDDDDC",
"z	c #E5E6E6",
"A	c #F2F2F2",
"B	c #F6F6F6",
"C	c #FBFAFA",
"D	c #DCDDDD",
"E	c #E1E0E1",
"F	c #E6E5E5",
"G	c #EDEEED",
"H	c #F7F7F6",
"I	c #FAFAFA",
"................+",
".@@@@@@@@@@@@@@@#",
".@#++++++++++++@#",
".@+$%&*=-;>,').@#",
".@+!~{]^/(,_):.@#",
".@+&<[-}|12)34.@#",
".@+<]56(78)90a.@#",
".@+=-}(b')cdef.@#",
".@+gh(7i)94ajk.@#",
".@+/(1_)c4lmkn.@#",
".@+|1o)pqlmrst.@#",
".@+u_)3dlmvswx.@#",
".@+_)9ylzrnABC.@#",
".@+)cDEFkGAHI#.@#",
".@+............@#",
".@@@@@@@@@@@@@@@#",
"+################",
"                 "};
