/* XPM */
static char * close_pressed_xpm[] = {
"17 18 73 1",
" 	c None",
".	c #9A9A9A",
"+	c #D5D6D5",
"@	c #2D2D2D",
"#	c #FFFFFF",
"$	c #565656",
"%	c #5A5A5B",
"&	c #5F5F5F",
"*	c #646464",
"=	c #686868",
"-	c #6C6C6C",
";	c #707171",
">	c #757675",
",	c #7A7A7A",
"'	c #7E7E7E",
")	c #838383",
"!	c #878887",
"~	c #8B8C8B",
"{	c #5A5B5B",
"]	c #646463",
"^	c #6C6D6D",
"/	c #717170",
"(	c #757575",
"_	c #7A7A79",
":	c #838382",
"<	c #909090",
"[	c #636464",
"}	c #6C6C6D",
"|	c #717171",
"1	c #7E7F7E",
"2	c #878787",
"3	c #959595",
"4	c #636363",
"5	c #6D6D6C",
"6	c #8B8C8C",
"7	c #909190",
"8	c #949595",
"9	c #999A99",
"0	c #6C6D6C",
"a	c #828383",
"b	c #959594",
"c	c #9D9E9E",
"d	c #6D6C6C",
"e	c #8C8C8B",
"f	c #8F9190",
"g	c #A1A2A1",
"h	c #797A79",
"i	c #828382",
"j	c #999999",
"k	c #9D9E9D",
"l	c #A2A3A1",
"m	c #A6A7A7",
"n	c #757676",
"o	c #90908F",
"p	c #989999",
"q	c #A2A3A2",
"r	c #A7A7A6",
"s	c #A9A9A9",
"t	c #8C8C8C",
"u	c #A2A2A2",
"v	c #A6A7A6",
"w	c #AAACAA",
"x	c #999998",
"y	c #A1A3A2",
"z	c #ABABAB",
"A	c #AFB0AF",
"B	c #B3B5B4",
"C	c #949594",
"D	c #9E9E9D",
"E	c #AAACAB",
"F	c #B3B4B3",
"G	c #B8B9B8",
"H	c #9E9E9E",
"................+",
".@@@@@@@@@@@@@@@#",
".@$%&*=-;>,')!~@#",
".@{&]=^/(_':!~<@#",
".@&[=}|(,1:2~<3@#",
".@4=5|>_':!6789@#",
".@=0|>,'a2~7b9c@#",
".@d/>,1)!ef39cg@#",
".@/(h1i!e7bjklm@#",
".@n,'i!6o8pkqrs@#",
".@,1)2t7b9kuvws@#",
".@'i!~<8xkyrzAs@#",
".@)26<8jcgvzABs@#",
".@!~<C9DqvEAFGs@#",
".@6<bjHlrssssss@#",
".@@@@@@@@@@@@@@@#",
"+################",
"                 "};
