/* XPM */
static char * maximize_toggled_pressed_xpm[] = {
"17 18 71 1",
" 	c None",
".	c #9A9A9A",
"+	c #D5D6D5",
"@	c #2D2D2D",
"#	c #FFFFFF",
"$	c #565656",
"%	c #5A5A5B",
"&	c #5F5F5F",
"*	c #646464",
"=	c #686868",
"-	c #6C6C6C",
";	c #707171",
">	c #7A7A7A",
",	c #7E7E7E",
"'	c #838383",
")	c #878887",
"!	c #8B8C8B",
"~	c #5A5B5B",
"{	c #646463",
"]	c #6C6D6D",
"^	c #717170",
"/	c #757575",
"(	c #838382",
"_	c #909090",
":	c #636464",
"<	c #6C6C6D",
"[	c #717171",
"}	c #878787",
"|	c #959595",
"1	c #636363",
"2	c #6D6D6C",
"3	c #757675",
"4	c #7A7A79",
"5	c #8B8C8C",
"6	c #909190",
"7	c #949595",
"8	c #999A99",
"9	c #6C6D6C",
"0	c #828383",
"a	c #959594",
"b	c #9D9E9E",
"c	c #6D6C6C",
"d	c #7E7F7E",
"e	c #8F9190",
"f	c #A1A2A1",
"g	c #797A79",
"h	c #828382",
"i	c #8C8C8B",
"j	c #999999",
"k	c #9D9E9D",
"l	c #A2A3A1",
"m	c #A6A7A7",
"n	c #989999",
"o	c #A2A3A2",
"p	c #A7A7A6",
"q	c #A9A9A9",
"r	c #8C8C8C",
"s	c #A2A2A2",
"t	c #A6A7A6",
"u	c #AAACAA",
"v	c #999998",
"w	c #A1A3A2",
"x	c #ABABAB",
"y	c #AFB0AF",
"z	c #B3B5B4",
"A	c #949594",
"B	c #9E9E9D",
"C	c #AAACAB",
"D	c #B3B4B3",
"E	c #B8B9B8",
"F	c #9E9E9E",
"................+",
".@@@@@@@@@@@@@@@#",
".@$%&*=-;@>,')!@#",
".@~&{=]^/@,()!_@#",
".@&:=<[/>@(}!_|@#",
".@1=2[34,@)5678@#",
".@=9[3>,0@!6a8b@#",
".@c^3>d')@e|8bf@#",
".@^/gdh)i@ajklm@#",
".@@@@@@@@@nkopq@#",
".@>d'}r6a8kstuq@#",
".@,h)!_7vkwpxyq@#",
".@'}5_7jbftxyzq@#",
".@)!_A8BotCyDEq@#",
".@5_ajFlpqqqqqq@#",
".@@@@@@@@@@@@@@@#",
"+################",
"                 "};
