/* XPM */
static char * maximize_toggled_active_xpm[] = {
"17 18 72 1",
" 	c None",
".	c #9A9A9A",
"+	c #D5D6D5",
"@	c #2D2D2D",
"#	c #FFFFFF",
"$	c #A9A9A9",
"%	c #AEADAD",
"&	c #B2B1B2",
"*	c #B6B6B5",
"=	c #BABABA",
"-	c #BFBEBE",
";	c #C7C8C8",
">	c #CCCBCB",
",	c #CFD0D0",
"'	c #D4D4D4",
")	c #ADADAE",
"!	c #B2B1B1",
"~	c #B6B5B6",
"{	c #BABBBB",
"]	c #BEBFBE",
"^	c #C3C2C3",
"/	c #D0D0CF",
"(	c #D9D9D9",
"_	c #B6B6B6",
":	c #BABBBA",
"<	c #C3C3C3",
"[	c #C8C7C7",
"}	c #D0D0D0",
"|	c #D9D8D9",
"1	c #DDDDDD",
"2	c #BEBFBF",
"3	c #C2C3C3",
"4	c #C7C7C7",
"5	c #CCCCCB",
"6	c #D8D9D8",
"7	c #DCDCDC",
"8	c #E1E1E0",
"9	c #CBCBCC",
"0	c #D8D8D8",
"a	c #DDDCDD",
"b	c #E0E0E1",
"c	c #E5E5E6",
"d	c #BFBFBF",
"e	c #C3C3C2",
"f	c #CFCFD0",
"g	c #E5E6E5",
"h	c #E9EAEA",
"i	c #E1E1E1",
"j	c #E5E5E5",
"k	c #EEEEEE",
"l	c #CBCCCB",
"m	c #D0CFD0",
"n	c #D9D9D8",
"o	c #DCDDDC",
"p	c #E9EAE9",
"q	c #EDEDEE",
"r	c #F3F2F2",
"s	c #CBCBCB",
"t	c #E9E9E9",
"u	c #F2F3F3",
"v	c #F6F7F6",
"w	c #DDDDDC",
"x	c #E5E6E6",
"y	c #F2F2F2",
"z	c #F6F6F6",
"A	c #FBFAFA",
"B	c #DCDDDD",
"C	c #E1E0E1",
"D	c #E6E5E5",
"E	c #EDEEED",
"F	c #F7F7F6",
"G	c #FAFAFA",
"................+",
".@@@@@@@@@@@@@@@#",
".@#++++++@+++++@#",
".@+$%&*=-@;>,'.@#",
".@+)!~{]^@>/'(.@#",
".@+&_:-<[@}'|1.@#",
".@+_{2345@'678.@#",
".@+=-<49,@0abc.@#",
".@+de45f'@18gh.@#",
".@@@@@@@@@ijhk.@#",
".@+[lm'noijpqr.@#",
".@+s/'|aijtquv.@#",
".@+/'6wixpkyzA.@#",
".@+'0BCDhEyFG#.@#",
".@+............@#",
".@@@@@@@@@@@@@@@#",
"+################",
"                 "};
