/* XPM */
static char * menu_active_xpm[] = {
"17 18 69 1",
" 	c None",
".	c #9A9A9A",
"+	c #D5D6D5",
"@	c #2D2D2D",
"#	c #FFFFFF",
"$	c #A9A9A9",
"%	c #AEADAD",
"&	c #B2B1B2",
"*	c #B6B6B5",
"=	c #BABABA",
"-	c #BFBEBE",
";	c #C3C2C2",
">	c #C7C8C8",
",	c #CCCBCB",
"'	c #CFD0D0",
")	c #D4D4D4",
"!	c #ADADAE",
"~	c #B2B1B1",
"{	c #B6B5B6",
"]	c #BABBBB",
"^	c #BEBFBE",
"/	c #C3C2C3",
"(	c #C7C7C7",
"_	c #D0D0CF",
":	c #D9D9D9",
"<	c #B6B6B6",
"[	c #BABBBA",
"}	c #C3C3C3",
"|	c #C8C7C7",
"1	c #CBCCCB",
"2	c #D0D0D0",
"3	c #D9D8D9",
"4	c #DDDDDD",
"5	c #BEBFBF",
"6	c #D8D9D8",
"7	c #DCDCDC",
"8	c #E1E1E0",
"9	c #CBCBCC",
"0	c #D8D8D8",
"a	c #DDDCDD",
"b	c #E0E0E1",
"c	c #E5E5E6",
"d	c #BFBFBF",
"e	c #C3C3C2",
"f	c #E5E6E5",
"g	c #E9EAEA",
"h	c #E1E1E1",
"i	c #E5E5E5",
"j	c #EEEEEE",
"k	c #D0CFD0",
"l	c #D9D9D8",
"m	c #E9EAE9",
"n	c #EDEDEE",
"o	c #F3F2F2",
"p	c #CBCBCB",
"q	c #E9E9E9",
"r	c #F2F3F3",
"s	c #F6F7F6",
"t	c #DDDDDC",
"u	c #E5E6E6",
"v	c #F2F2F2",
"w	c #F6F6F6",
"x	c #FBFAFA",
"y	c #DCDDDD",
"z	c #E1E0E1",
"A	c #E6E5E5",
"B	c #EDEEED",
"C	c #F7F7F6",
"D	c #FAFAFA",
"................+",
".@@@@@@@@@@@@@@@#",
".@#++++++++++++@#",
".@+$%&*=-;>,').@#",
".@+!~{]^/(,_):.@#",
".@+&<[-}|12)34.@#",
".@+<]5@@@@@678.@#",
".@+=-}(9')0abc.@#",
".@+de(@@@@@8fg.@#",
".@+/(1_@@@higj.@#",
".@+|1k)l@himno.@#",
".@+p_)3ahiqnrs.@#",
".@+_)6thumjvwx.@#",
".@+)0yzAgBvCD#.@#",
".@+............@#",
".@@@@@@@@@@@@@@@#",
"+################",
"                 "};
