/* XPM */
static char * menu_pressed_xpm[] = {
"17 18 71 1",
" 	c None",
".	c #9A9A9A",
"+	c #D5D6D5",
"@	c #2D2D2D",
"#	c #FFFFFF",
"$	c #565656",
"%	c #5A5A5B",
"&	c #5F5F5F",
"*	c #646464",
"=	c #686868",
"-	c #6C6C6C",
";	c #707171",
">	c #757675",
",	c #7A7A7A",
"'	c #7E7E7E",
")	c #838383",
"!	c #878887",
"~	c #8B8C8B",
"{	c #5A5B5B",
"]	c #646463",
"^	c #6C6D6D",
"/	c #717170",
"(	c #757575",
"_	c #7A7A79",
":	c #838382",
"<	c #909090",
"[	c #636464",
"}	c #6C6C6D",
"|	c #717171",
"1	c #7E7F7E",
"2	c #878787",
"3	c #959595",
"4	c #636363",
"5	c #6D6D6C",
"6	c #8B8C8C",
"7	c #909190",
"8	c #949595",
"9	c #999A99",
"0	c #6C6D6C",
"a	c #959594",
"b	c #9D9E9E",
"c	c #6D6C6C",
"d	c #8C8C8B",
"e	c #8F9190",
"f	c #A1A2A1",
"g	c #797A79",
"h	c #999999",
"i	c #9D9E9D",
"j	c #A2A3A1",
"k	c #A6A7A7",
"l	c #757676",
"m	c #828382",
"n	c #989999",
"o	c #A2A3A2",
"p	c #A7A7A6",
"q	c #A9A9A9",
"r	c #8C8C8C",
"s	c #A2A2A2",
"t	c #A6A7A6",
"u	c #AAACAA",
"v	c #999998",
"w	c #A1A3A2",
"x	c #ABABAB",
"y	c #AFB0AF",
"z	c #B3B5B4",
"A	c #949594",
"B	c #9E9E9D",
"C	c #AAACAB",
"D	c #B3B4B3",
"E	c #B8B9B8",
"F	c #9E9E9E",
"................+",
".@@@@@@@@@@@@@@@#",
".@$%&*=-;>,')!~@#",
".@{&]=^/(_':!~<@#",
".@&[=}|(,1:2~<3@#",
".@4=5|>_':!6789@#",
".@=0|>@@@@@7a9b@#",
".@c/>,1)!de39bf@#",
".@/(g1@@@@@hijk@#",
".@l,'m!@@@niopq@#",
".@,1)2r7@9istuq@#",
".@'m!~<8viwpxyq@#",
".@)26<8hbftxyzq@#",
".@!~<A9BotCyDEq@#",
".@6<ahFjpqqqqqq@#",
".@@@@@@@@@@@@@@@#",
"+################",
"                 "};
