/* XPM */
static char * shade_active_xpm[] = {
"17 18 71 1",
" 	c None",
".	c #9A9A9A",
"+	c #D5D6D5",
"@	c #2D2D2D",
"#	c #FFFFFF",
"$	c #A9A9A9",
"%	c #AEADAD",
"&	c #B2B1B2",
"*	c #B6B6B5",
"=	c #BABABA",
"-	c #BFBEBE",
";	c #C3C2C2",
">	c #C7C8C8",
",	c #CCCBCB",
"'	c #CFD0D0",
")	c #D4D4D4",
"!	c #ADADAE",
"~	c #B2B1B1",
"{	c #B6B5B6",
"]	c #BABBBB",
"^	c #BEBFBE",
"/	c #C3C2C3",
"(	c #C7C7C7",
"_	c #D0D0CF",
":	c #D9D9D9",
"<	c #B6B6B6",
"[	c #BABBBA",
"}	c #C3C3C3",
"|	c #C8C7C7",
"1	c #CBCCCB",
"2	c #D0D0D0",
"3	c #D9D8D9",
"4	c #DDDDDD",
"5	c #BEBFBF",
"6	c #C2C3C3",
"7	c #CCCCCB",
"8	c #CFD0CF",
"9	c #D8D9D8",
"0	c #DCDCDC",
"a	c #E1E1E0",
"b	c #BFBFBF",
"c	c #C3C3C2",
"d	c #CFCFD0",
"e	c #E5E6E5",
"f	c #E9EAEA",
"g	c #D0CFD0",
"h	c #D9D9D8",
"i	c #DCDDDC",
"j	c #E1E1E1",
"k	c #E5E5E5",
"l	c #E9EAE9",
"m	c #EDEDEE",
"n	c #F3F2F2",
"o	c #CBCBCB",
"p	c #DDDCDD",
"q	c #E9E9E9",
"r	c #F2F3F3",
"s	c #F6F7F6",
"t	c #DDDDDC",
"u	c #E5E6E6",
"v	c #EEEEEE",
"w	c #F2F2F2",
"x	c #F6F6F6",
"y	c #FBFAFA",
"z	c #D8D8D8",
"A	c #DCDDDD",
"B	c #E1E0E1",
"C	c #E6E5E5",
"D	c #EDEEED",
"E	c #F7F7F6",
"F	c #FAFAFA",
"................+",
".@@@@@@@@@@@@@@@#",
".@#++++++++++++@#",
".@+$%&*=-;>,').@#",
".@+!~{]^/(,_):.@#",
".@+&<[-}|12)34.@#",
".@+<]56(78)90a.@#",
".@@@@@@@@@@@@@@@#",
".@+bc(7d)94aef.@#",
".@@@@@@@@@@@@@@@#",
".@+|1g)hijklmn.@#",
".@+o_)3pjkqmrs.@#",
".@+_)9tjulvwxy.@#",
".@+)zABCfDwEF#.@#",
".@+............@#",
".@@@@@@@@@@@@@@@#",
"+################",
"                 "};
