/* XPM */
static char * shade_pressed_xpm[] = {
"17 18 68 1",
" 	c None",
".	c #9A9A9A",
"+	c #D5D6D5",
"@	c #2D2D2D",
"#	c #FFFFFF",
"$	c #565656",
"%	c #5A5A5B",
"&	c #5F5F5F",
"*	c #646464",
"=	c #686868",
"-	c #6C6C6C",
";	c #707171",
">	c #757675",
",	c #7A7A7A",
"'	c #7E7E7E",
")	c #838383",
"!	c #878887",
"~	c #8B8C8B",
"{	c #5A5B5B",
"]	c #646463",
"^	c #6C6D6D",
"/	c #717170",
"(	c #757575",
"_	c #7A7A79",
":	c #838382",
"<	c #909090",
"[	c #636464",
"}	c #6C6C6D",
"|	c #717171",
"1	c #7E7F7E",
"2	c #878787",
"3	c #959595",
"4	c #636363",
"5	c #6D6D6C",
"6	c #8B8C8C",
"7	c #909190",
"8	c #949595",
"9	c #999A99",
"0	c #6C6D6C",
"a	c #828383",
"b	c #959594",
"c	c #9D9E9E",
"d	c #797A79",
"e	c #828382",
"f	c #8C8C8B",
"g	c #999999",
"h	c #9D9E9D",
"i	c #A2A3A1",
"j	c #A6A7A7",
"k	c #8C8C8C",
"l	c #A2A2A2",
"m	c #A6A7A6",
"n	c #AAACAA",
"o	c #A9A9A9",
"p	c #999998",
"q	c #A1A3A2",
"r	c #A7A7A6",
"s	c #ABABAB",
"t	c #AFB0AF",
"u	c #A1A2A1",
"v	c #B3B5B4",
"w	c #949594",
"x	c #9E9E9D",
"y	c #A2A3A2",
"z	c #AAACAB",
"A	c #B3B4B3",
"B	c #B8B9B8",
"C	c #9E9E9E",
"................+",
".@@@@@@@@@@@@@@@#",
".@$%&*=-;>,')!~@#",
".@{&]=^/(_':!~<@#",
".@&[=}|(,1:2~<3@#",
".@4=5|>_':!6789@#",
".@=0|>,'a2~7b9c@#",
".@@@@@@@@@@@@@@@#",
".@/(d1e!f7bghij@#",
".@@@@@@@@@@@@@@@#",
".@,1)2k7b9hlmno@#",
".@'e!~<8phqrsto@#",
".@)26<8gcumstvo@#",
".@!~<w9xymztABo@#",
".@6<bgCiroooooo@#",
".@@@@@@@@@@@@@@@#",
"+################",
"                 "};
