/* XPM */
static char * stick_active_xpm[] = {
"17 18 72 1",
" 	c None",
".	c #9A9A9A",
"+	c #D5D6D5",
"@	c #2D2D2D",
"#	c #FFFFFF",
"$	c #A9A9A9",
"%	c #AEADAD",
"&	c #B2B1B2",
"*	c #B6B6B5",
"=	c #BABABA",
"-	c #BFBEBE",
";	c #C3C2C2",
">	c #C7C8C8",
",	c #CCCBCB",
"'	c #CFD0D0",
")	c #D4D4D4",
"!	c #ADADAE",
"~	c #B2B1B1",
"{	c #B6B5B6",
"]	c #BABBBB",
"^	c #BEBFBE",
"/	c #C3C2C3",
"(	c #C7C7C7",
"_	c #D0D0CF",
":	c #D9D9D9",
"<	c #B6B6B6",
"[	c #BABBBA",
"}	c #C3C3C3",
"|	c #C8C7C7",
"1	c #CBCCCB",
"2	c #D0D0D0",
"3	c #D9D8D9",
"4	c #DDDDDD",
"5	c #BEBFBF",
"6	c #C2C3C3",
"7	c #CCCCCB",
"8	c #CFD0CF",
"9	c #D8D9D8",
"0	c #DCDCDC",
"a	c #E1E1E0",
"b	c #D8D8D8",
"c	c #DDDCDD",
"d	c #E0E0E1",
"e	c #E5E5E6",
"f	c #BFBFBF",
"g	c #C3C3C2",
"h	c #E5E6E5",
"i	c #E9EAEA",
"j	c #E1E1E1",
"k	c #E5E5E5",
"l	c #EEEEEE",
"m	c #D0CFD0",
"n	c #D9D9D8",
"o	c #DCDDDC",
"p	c #E9EAE9",
"q	c #EDEDEE",
"r	c #F3F2F2",
"s	c #CBCBCB",
"t	c #E9E9E9",
"u	c #F2F3F3",
"v	c #F6F7F6",
"w	c #DDDDDC",
"x	c #E5E6E6",
"y	c #F2F2F2",
"z	c #F6F6F6",
"A	c #FBFAFA",
"B	c #DCDDDD",
"C	c #E1E0E1",
"D	c #E6E5E5",
"E	c #EDEEED",
"F	c #F7F7F6",
"G	c #FAFAFA",
"................+",
".@@@@@@@@@@@@@@@#",
".@#++++++++++++@#",
".@+$%&*=-;>,').@#",
".@+!~{]^/(,_):.@#",
".@+&<[-}|12)34.@#",
".@+<]56(78)90a.@#",
".@+=-}(@@@bcde.@#",
".@+fg(7@)@4ahi.@#",
".@+/(1_@@@jkil.@#",
".@+|1m)nojkpqr.@#",
".@+s_)3cjktquv.@#",
".@+_)9wjxplyzA.@#",
".@+)bBCDiEyFG#.@#",
".@+............@#",
".@@@@@@@@@@@@@@@#",
"+################",
"                 "};
