/* XPM */
static char * title_1_inactive_xpm[] = {
"4 26 3 1",
" 	c None",
".	c #686868",
"+	c #E3E4E4",
"....",
"++++",
"++++",
"++++",
"++++",
"++++",
"++++",
"++++",
"++++",
"++++",
"++++",
"++++",
"++++",
"++++",
"++++",
"++++",
"++++",
"++++",
"++++",
"++++",
"++++",
"++++",
"++++",
"++++",
"++++",
"...."};
