/* XPM */
static char * title_4_active_xpm[] = {
"7 26 6 1",
" 	c None",
".	c #000000",
"+	c #FFFFFF",
"@	c #D5D6D5",
"#	c #8A8A8A",
"$	c #A9A9A9",
".......",
"+++++++",
"@@@@@@@",
"@@@@@@@",
"@@@++++",
"@@@@###",
"@@@++++",
"@@@@###",
"@@@++++",
"@@@@###",
"@@@++++",
"@@@@###",
"@@@++++",
"@@@@###",
"@@@++++",
"@@@@###",
"@@@++++",
"@@@@###",
"@@@++++",
"@@@@###",
"@@@@@@@",
"@@@@@@@",
"@@@@@@@",
"@@@@@@@",
"$$$$$$$",
"......."};
