/* XPM */
static char * top_right_inactive_xpm[] = {
"46 26 3 1",
" 	c None",
".	c #686868",
"+	c #E3E4E4",
"..............................................",
"+++++++++++++++++++++++++++++++++++++++++++++.",
"+++++++++++++++++++++++++++++++++++++++++++++.",
"+++++++++++++++++++++++++++++++++++++++++++++.",
"+++++++++++++++++++++++++++++++++++++++++++++.",
"+++++++++++++++++++++++++++++++++++++++++++++.",
"+++++++++++++++++++++++++++++++++++++++++++++.",
"+++++++++++++++++++++++++++++++++++++++++++++.",
"+++++++++++++++++++++++++++++++++++++++++++++.",
"+++++++++++++++++++++++++++++++++++++++++++++.",
"+++++++++++++++++++++++++++++++++++++++++++++.",
"+++++++++++++++++++++++++++++++++++++++++++++.",
"+++++++++++++++++++++++++++++++++++++++++++++.",
"+++++++++++++++++++++++++++++++++++++++++++++.",
"+++++++++++++++++++++++++++++++++++++++++++++.",
"+++++++++++++++++++++++++++++++++++++++++++++.",
"+++++++++++++++++++++++++++++++++++++++++++++.",
"+++++++++++++++++++++++++++++++++++++++++++++.",
"+++++++++++++++++++++++++++++++++++++++++++++.",
"+++++++++++++++++++++++++++++++++++++++++++++.",
"+++++++++++++++++++++++++++++++++++++++++++++.",
"+++++++++++++++++++++++++++++++++++++++++++++.",
"+++++++++++++++++++++++++++++++++++++++++++++.",
"+++++++++++++++++++++++++++++++++++++++++++++.",
"+++++++++++++++++++++++++++++++++++++++++++++.",
".........................................++++."};
