/* XPM */
static char * top_left_inactive_xpm[] = {
"26 26 3 1",
" 	c None",
".	c #686868",
"+	c #E3E4E4",
"..........................",
".+++++++++++++++++++++++++",
".+++++++++++++++++++++++++",
".+++++++++++++++++++++++++",
".+++++++++++++++++++++++++",
".+++++++++++++++++++++++++",
".+++++++++++++++++++++++++",
".+++++++++++++++++++++++++",
".+++++++++++++++++++++++++",
".+++++++++++++++++++++++++",
".+++++++++++++++++++++++++",
".+++++++++++++++++++++++++",
".+++++++++++++++++++++++++",
".+++++++++++++++++++++++++",
".+++++++++++++++++++++++++",
".+++++++++++++++++++++++++",
".+++++++++++++++++++++++++",
".+++++++++++++++++++++++++",
".+++++++++++++++++++++++++",
".+++++++++++++++++++++++++",
".+++++++++++++++++++++++++",
".+++++++++++++++++++++++++",
".+++++++++++++++++++++++++",
".+++++++++++++++++++++++++",
".+++++++++++++++++++++++++",
".++++....................."};
